<?xml version="1.0" encoding="utf-8"?>
<!-- Generator: Adobe Illustrator 18.1.1, SVG Export Plug-In . SVG Version: 6.00 Build 0)  -->
<!DOCTYPE svg PUBLIC "-//W3C//DTD SVG 1.1//EN" "http://www.w3.org/Graphics/SVG/1.1/DTD/svg11.dtd">
<svg version="1.1" id="Layer_1" xmlns="http://www.w3.org/2000/svg" xmlns:xlink="http://www.w3.org/1999/xlink" x="0px" y="0px"
	 viewBox="0 0 100 100" enable-background="new 0 0 100 100" xml:space="preserve">
<path fill="#010101" d="M44.6,11.2c0-0.3,0-0.3,0-0.6c0-0.3,0-0.6,0.3-1c0.3-0.3,0.6-0.6,0.6-1.3c0-0.3,0-0.3,0-0.6
	c-0.3-0.3-0.3-0.3-0.3-0.6s0.3-0.6,0.6-0.6h0.3c0.3,0,0.6-0.3,1-0.3c1.6-0.3,3.2-0.3,5.1,0c0.3,0,0.6,0,0.6,0.3
	c0.3,0,0.6,0.3,0.6,0.6s0,0.3,0,0.6c-0.3,0.3-0.3,0.6,0,1.3c0,0.3,0.3,0.6,0.6,1c0.3,0,0.3,0.3,0.3,0.3c0,0.3,0,0.6,0,1
	c0,0,0,0-0.3,0c-0.3,0-0.6,0.3-0.6,1c0,0.6,0,1.3,0,1.9c0,0.6,0,1,0,1.6c0,2.6,0.3,4.8,0.6,7.4c0.6,5.5,1.9,10.9,3.5,16.1
	c0.6,1.6,1.3,3.5,1.9,5.1c0.6,1.9,1.3,3.9,1.6,5.8c0.3,1.6,0.6,3.5,0.6,5.1c0,2.6,0,5.1,0,7.7c0,4.2,0,8,0,12.2c0,3.9,0,7.7,0,11.3
	c0,1.3,0,2.3-0.3,3.5c0,0.3-0.3,1-0.3,1.3c-0.3,0.6-0.6,1-1.3,1.3c-0.6,0.3-1.3,0.6-1.9,0.6c-1.3,0.3-2.6,0.6-3.9,0.6
	c-2.3,0.3-4.5,0.3-6.8,0.3c-1.9,0-4.2-0.3-6.1-1c-0.6,0-1-0.3-1.6-0.6s-1-0.6-1-1c-0.3-0.6-0.3-1-0.6-1.6c0-0.3-0.3-0.6,0-1.3
	c0-0.3,0-0.3,0-0.6s0-1,0-1.3c0-5.1,0-10.3,0-15.8c0-4.5,0-9,0-13.5c0-1,0-1.9,0-2.9c0-2.6,0.3-4.8,1-7.4c0.3-1.3,1-2.6,1.3-3.5
	c0.6-1.9,1.3-3.9,1.9-5.8c1-2.9,1.6-6.1,2.3-9c0.3-1.3,0.3-2.6,0.6-4.2c0-1.3,0.3-2.6,0.3-4.2c0-2.6,0-5.5,0.3-8c0-0.3,0-0.6,0-1
	C45.6,11.5,45.2,11.5,44.6,11.2C44.9,11.2,44.9,11.2,44.6,11.2z"/>
</svg>
