<?xml version="1.0" encoding="utf-8"?>
<!-- Generator: Adobe Illustrator 18.1.1, SVG Export Plug-In . SVG Version: 6.00 Build 0)  -->
<svg version="1.1" id="Layer_1" xmlns="http://www.w3.org/2000/svg" xmlns:xlink="http://www.w3.org/1999/xlink" x="0px" y="0px"
	 viewBox="0 0 250 250" enable-background="new 0 0 250 250" xml:space="preserve">
<path id="BOTTLE" fill="#010101" d="M111.6,23.7c0-0.8,0-0.8,0-1.7s0-1.7,0.8-2.5c0.8-0.8,1.7-1.7,1.7-3.3c0-0.8,0-0.8,0-1.7
	c-0.8-0.8-0.8-0.8-0.8-1.7s0.8-1.7,1.7-1.7h0.8c0.8,0,1.7-0.8,2.5-0.8c4.2-0.8,8.4-0.8,13.4,0c0.8,0,1.7,0,1.7,0.8
	c0.8,0,1.7,0.8,1.7,1.7s0,0.8,0,1.7c-0.8,0.8-0.8,1.7,0,3.3c0,0.8,0.8,1.7,1.7,2.5c0.8,0,0.8,0.8,0.8,0.8c0,0.8,0,1.7,0,2.5
	c0,0,0,0-0.8,0c-0.8,0-1.7,0.8-1.7,2.5c0,1.7,0,3.3,0,5s0,2.5,0,4.2c0,6.7,0.8,12.6,1.7,19.3c1.7,14.2,5,28.5,9.2,41.9
	c1.7,4.2,3.3,9.2,5,13.4c1.7,5,3.3,10,4.2,15.1c0.8,4.2,1.7,9.2,1.7,13.4c0,6.7,0,13.4,0,20.1c0,10.9,0,20.9,0,31.8
	c0,10,0,20.1,0,29.3c0,3.3,0,5.9-0.8,9.2c0,0.8-0.8,2.5-0.8,3.3c-0.8,1.7-1.7,2.5-3.3,3.3c-1.7,0.8-3.3,1.7-5,1.7
	c-3.3,0.8-6.7,1.7-10,1.7c-5.9,0.8-11.7,0.8-17.6,0.8c-5,0-10.9-0.8-15.9-2.5c-1.7,0-2.5-0.8-4.2-1.7c-1.7-0.8-2.5-1.7-2.5-2.5
	c-0.8-1.7-0.8-2.5-1.7-4.2c0-0.8-0.8-1.7,0-3.3c0-0.8,0-0.8,0-1.7c0-0.8,0-2.5,0-3.3c0-13.4,0-26.8,0-41c0-11.7,0-23.4,0-35.2
	c0-2.5,0-5,0-7.5c0-6.7,0.8-12.6,2.5-19.3c0.8-3.3,2.5-6.7,3.3-9.2c1.7-5,3.3-10,5-15.1c2.5-7.5,4.2-15.9,5.9-23.4
	c0.8-3.3,0.8-6.7,1.7-10.9c0-3.3,0.8-6.7,0.8-10.9c0-6.7,0-14.2,0.8-20.9c0-0.8,0-1.7,0-2.5C114.1,24.6,113.3,24.6,111.6,23.7
	C112.4,23.7,112.4,23.7,111.6,23.7z"/>
</svg>
