<?xml version="1.0" encoding="utf-8"?>
<!-- Generator: Adobe Illustrator 18.1.1, SVG Export Plug-In . SVG Version: 6.00 Build 0)  -->
<!DOCTYPE svg PUBLIC "-//W3C//DTD SVG 1.1//EN" "http://www.w3.org/Graphics/SVG/1.1/DTD/svg11.dtd">
<svg version="1.1" id="Layer_1" xmlns="http://www.w3.org/2000/svg" xmlns:xlink="http://www.w3.org/1999/xlink" x="0px" y="0px"
	 viewBox="0 0 100 100" enable-background="new 0 0 100 100" xml:space="preserve">
<g>
	<g>
		<path d="M76,65.4c0,2.2,0,4.4,0,6.6c0,0.8-0.4,1.4-1.1,1.7c-2.1,0.9-4.2,0.8-6.4,0.2c-0.9-0.2-1.4-0.9-1.4-1.9
			c0-4.4-0.1-8.9,0.1-13.3c0.1-2,1-3.9,1.6-5.8c0.8-2.7,1.2-5.4,1.4-8.1c0-0.8-0.1-1.5-0.1-2.3c-0.1-0.7,0.3-1.1,1-1.1
			c0.4,0,0.8,0,1.2,0c0.6,0.1,1,0.3,1,1c0,0.7,0,1.4,0,2.1c-0.2,3.6,0.7,7,1.9,10.4c0.8,2.3,1.1,4.6,1,7C76,63,76.1,64.2,76,65.4
			C76,65.4,76,65.4,76,65.4z"/>
	</g>
	<g>
		<path d="M47,65.4c0,2.2,0,4.4,0,6.6c0,0.8-0.4,1.4-1.1,1.7c-2.1,0.9-4.2,0.8-6.4,0.2c-0.9-0.2-1.4-0.9-1.4-1.9
			c0-4.4-0.1-8.9,0.1-13.3c0.1-2,1-3.9,1.6-5.8c0.8-2.7,1.2-5.4,1.4-8.1c0-0.8-0.1-1.5-0.1-2.3c-0.1-0.7,0.3-1.1,1-1.1
			c0.4,0,0.8,0,1.2,0c0.6,0.1,1,0.3,1,1c0,0.7,0,1.4,0,2.1c-0.2,3.6,0.7,7,1.9,10.4c0.8,2.3,1.1,4.6,1,7C47,63,47.1,64.2,47,65.4
			C47,65.4,47,65.4,47,65.4z"/>
	</g>
	<g>
		<path d="M59.9,68.5c0,1.4,0,2.9,0,4.3c0,0.5-0.2,0.9-0.7,1.1c-1.4,0.6-2.7,0.5-4.1,0.1c-0.6-0.1-0.9-0.6-0.9-1.2
			c0-2.9-0.1-5.8,0.1-8.6c0.1-1.3,0.6-2.5,1-3.7c0.5-1.7,0.8-3.5,0.9-5.3c0-0.5,0-1-0.1-1.5c0-0.5,0.2-0.7,0.6-0.7
			c0.3,0,0.5,0,0.8,0c0.4,0,0.6,0.2,0.6,0.7c0,0.5,0,0.9,0,1.4c-0.1,2.3,0.5,4.6,1.2,6.7c0.5,1.5,0.7,3,0.6,4.5
			C59.9,67,59.9,67.8,59.9,68.5C59.9,68.5,59.9,68.5,59.9,68.5z"/>
	</g>
	<g>
		<path d="M30.3,69.8c0,1.1,0,2.2,0,3.3c0,0.4-0.2,0.7-0.6,0.8c-1.1,0.4-2.1,0.4-3.2,0.1c-0.5-0.1-0.7-0.4-0.7-0.9
			c0-2.2-0.1-4.5,0.1-6.7c0.1-1,0.5-2,0.8-2.9c0.4-1.3,0.6-2.7,0.7-4.1c0-0.4,0-0.8-0.1-1.2c0-0.4,0.1-0.5,0.5-0.6
			c0.2,0,0.4,0,0.6,0c0.3,0,0.5,0.2,0.5,0.5c0,0.4,0,0.7,0,1.1c-0.1,1.8,0.4,3.6,1,5.3c0.4,1.1,0.5,2.3,0.5,3.5
			C30.3,68.6,30.3,69.2,30.3,69.8C30.3,69.8,30.3,69.8,30.3,69.8z"/>
	</g>
	<g id="otion.tif_1_">
		<g>
			<path d="M74.5,28.6c-0.4,2.5-0.7,5-1.1,7.8c-1-0.9-1.9-1.7-3-2.6c-0.8,1-1.7,2-2.5,2.9c-3.2,3.9-6.4,7.8-9.7,11.6
				c-1.5,1.8-2.7,1.8-4.3,0.3c-3.5-3.2-7-6.3-10.5-9.6c-0.8-0.8-1.4-0.8-2.2,0c-4.1,3.7-8.3,7.4-12.4,11.1c-1,0.9-2,1.8-3,2.8
				c-1.1,0-2.3,0-3.4,0c0-0.9,0-1.9,0-2.8c2.6-2.4,5.2-4.9,7.8-7.3c3.3-3,6.6-5.8,9.9-8.8c1.7-1.5,2.7-1.5,4.4,0.1
				c3.4,3.2,6.9,6.3,10.4,9.4c0.2,0.2,0.5,0.4,0.9,0.7c2.1-2.5,4.2-5,6.3-7.5c1.4-1.7,2.7-3.4,4.2-5c0.7-0.8,0.7-1.4-0.1-2.1
				c-0.8-0.6-1.6-1.3-2.4-2c0.1-0.2,0.2-0.4,0.3-0.5c2.9-0.4,5.9-0.8,8.8-1.3c0.5,0,1,0,1.6,0C74.5,26.8,74.5,27.7,74.5,28.6z"/>
		</g>
	</g>
</g>
</svg>
