<?xml version="1.0" encoding="utf-8"?>
<!-- Generator: Adobe Illustrator 18.1.1, SVG Export Plug-In . SVG Version: 6.00 Build 0)  -->
<!DOCTYPE svg PUBLIC "-//W3C//DTD SVG 1.1//EN" "http://www.w3.org/Graphics/SVG/1.1/DTD/svg11.dtd">
<svg version="1.1" id="Layer_1" xmlns="http://www.w3.org/2000/svg" xmlns:xlink="http://www.w3.org/1999/xlink" x="0px" y="0px"
	 viewBox="0 0 100 100" enable-background="new 0 0 100 100" xml:space="preserve">
<g>
	<path d="M76.9,68.3c-0.8,0-1.6,0-2.4,0c-2.4-0.1-4.3,0-6.2,2.3c-2.8,3.4-8.2,2.7-10.8-0.9c-0.8-1.1-1.6-1.4-2.8-1.3
		c-3.5,0.1-6.9,0-10.4,0c-1.3,0-1.9-0.4-1.7-1.7c0-0.4,0-0.8,0-1.1c-0.3-2.2,0.3-3.8,2.3-5.1c2.8-1.8,3.6-4.7,3.7-7.9
		c0.1-3.4-0.1-6.8,0.4-10.1c0.8-5.8,4.3-9.6,9.8-11.6c1.1-0.4,1.6-0.7,1.7-2c0-2,1.3-3.1,3.1-3.1c1.8,0,3,1.2,3,3.1
		c0,1.2,0.5,1.6,1.5,1.9c6.3,2.1,10.1,7.4,10.2,14.1c0,2.8,0.2,5.5,0.2,8.3c0,3.3,1.3,5.9,4,7.7c1.4,1,2,2.1,1.8,3.8
		c-0.1,0.6-0.1,1.1,0,1.7c0.2,1.7-0.4,2.3-2.1,2.1C80.3,68.2,78.6,68.3,76.9,68.3z"/>
	<path d="M29.1,39c-3.6,0-7.3,0-10.9,0c-1.2,0-1.7-0.3-1.7-1.6c0.1-5.5-0.7-4.5,4.4-4.5c6-0.1,11.9,0,17.9,0c0.6,0,1.3,0,1.9,0.1
		c1.6,0.3,2.7,1.7,2.6,3.2c-0.1,1.6-1.3,2.8-3,2.8C36.5,39.1,32.8,39,29.1,39C29.1,39,29.1,39,29.1,39z"/>
	<path d="M29,50.7c-3.6,0-7.2,0-10.7,0c-1.3,0-1.7-0.4-1.7-1.7c0.1-5.3-0.7-4.4,4.3-4.4c5.9-0.1,11.8,0,17.7,0c0.5,0,1,0,1.5,0
		c1.9,0.2,3.2,1.4,3.2,3.1c0,1.7-1.4,3-3.4,3C36.2,50.7,32.6,50.7,29,50.7z"/>
	<path d="M26,62.4c-2.6,0-5.1,0-7.7,0c-1.2,0-1.8-0.3-1.8-1.7c0.1-5.4-0.7-4.4,4.4-4.5c4.1-0.1,8.2,0,12.2,0c0.6,0,1.3,0,1.9,0.2
		c1.6,0.4,2.4,1.5,2.3,3.2c-0.2,1.7-1.2,2.7-2.8,2.7C31.7,62.5,28.8,62.4,26,62.4C26,62.4,26,62.4,26,62.4z"/>
</g>
</svg>
