<?xml version="1.0" encoding="utf-8"?>
<!-- Generator: Adobe Illustrator 18.1.1, SVG Export Plug-In . SVG Version: 6.00 Build 0)  -->
<!DOCTYPE svg PUBLIC "-//W3C//DTD SVG 1.1//EN" "http://www.w3.org/Graphics/SVG/1.1/DTD/svg11.dtd">
<svg version="1.1" id="Layer_1" xmlns="http://www.w3.org/2000/svg" xmlns:xlink="http://www.w3.org/1999/xlink" x="0px" y="0px"
	 viewBox="0 0 35 35" enable-background="new 0 0 35 35" xml:space="preserve">
<g>
	<path fill-rule="evenodd" clip-rule="evenodd" d="M4.6,5.4c0-0.1,0-0.1,0-0.2c0-0.1,0-0.2,0.1-0.3c0.1-0.1,0.2-0.2,0.2-0.4
		c0-0.1,0-0.1,0-0.2C4.8,4.3,4.8,4.2,4.8,4.2C4.8,4.1,4.9,4,5,4c0,0,0.1,0,0.1,0c0.1,0,0.2-0.1,0.3-0.1c0.5-0.1,1-0.1,1.6,0
		c0.1,0,0.2,0,0.2,0.1c0.1,0,0.2,0.1,0.2,0.2c0,0.1,0,0.1,0,0.2c-0.1,0.1-0.1,0.2,0,0.4c0,0.1,0.1,0.2,0.2,0.3
		c0.1,0,0.1,0.1,0.1,0.1c0,0.1,0,0.2,0,0.3c0,0,0,0-0.1,0c-0.1,0-0.2,0.1-0.2,0.3c0,0.2,0,0.4,0,0.6c0,0.2,0,0.3,0,0.5
		c0,0.8,0.1,1.5,0.2,2.3c0.2,1.7,0.6,3.4,1.1,5c0.2,0.5,0.4,1.1,0.6,1.6c0.2,0.6,0.4,1.2,0.5,1.8C10,18,10,18.5,10,19.1
		c0,0.8,0,1.6,0,2.4c0,1.3,0,2.5,0,3.8c0,1.2,0,2.4,0,3.5c0,0.4,0,0.7-0.1,1.1c0,0.1-0.1,0.3-0.1,0.4c-0.1,0.2-0.2,0.3-0.4,0.4
		c-0.2,0.1-0.4,0.2-0.6,0.2c-0.4,0.1-0.8,0.2-1.2,0.2c-0.7,0.1-1.4,0.1-2.1,0.1c-0.6,0-1.3-0.1-1.9-0.3c-0.2,0-0.3-0.1-0.5-0.2
		c-0.2-0.1-0.3-0.2-0.3-0.3c-0.1-0.2-0.1-0.3-0.2-0.5c0-0.1-0.1-0.2,0-0.4c0-0.1,0-0.1,0-0.2c0-0.1,0-0.3,0-0.4c0-1.6,0-3.2,0-4.9
		c0-1.4,0-2.8,0-4.2c0-0.3,0-0.6,0-0.9c0-0.8,0.1-1.5,0.3-2.3C3,16.3,3.1,16,3.3,15.6c0.2-0.6,0.4-1.2,0.6-1.8
		c0.3-0.9,0.5-1.9,0.7-2.8c0.1-0.4,0.1-0.8,0.2-1.3c0-0.4,0.1-0.8,0.1-1.3c0-0.8,0-1.7,0.1-2.5c0-0.1,0-0.2,0-0.3
		C4.9,5.5,4.8,5.5,4.6,5.4C4.7,5.4,4.7,5.4,4.6,5.4z"/>
	<path fill-rule="evenodd" clip-rule="evenodd" d="M15.8,5.4c0-0.1,0-0.1,0-0.2c0-0.1,0-0.2,0.1-0.3C16,4.8,16,4.7,16,4.6
		c0-0.1,0-0.1,0-0.2c-0.1-0.1-0.1-0.1-0.1-0.2C16,4.1,16,4,16.1,4c0,0,0.1,0,0.1,0c0.1,0,0.2-0.1,0.3-0.1c0.5-0.1,1-0.1,1.6,0
		c0.1,0,0.2,0,0.2,0.1c0.1,0,0.2,0.1,0.2,0.2c0,0.1,0,0.1,0,0.2c-0.1,0.1-0.1,0.2,0,0.4c0,0.1,0.1,0.2,0.2,0.3
		c0.1,0,0.1,0.1,0.1,0.1c0,0.1,0,0.2,0,0.3c0,0,0,0-0.1,0c-0.1,0-0.2,0.1-0.2,0.3c0,0.2,0,0.4,0,0.6c0,0.2,0,0.3,0,0.5
		c0,0.8,0.1,1.5,0.2,2.3c0.2,1.7,0.6,3.4,1.1,5c0.2,0.5,0.4,1.1,0.6,1.6c0.2,0.6,0.4,1.2,0.5,1.8c0.1,0.5,0.2,1.1,0.2,1.6
		c0,0.8,0,1.6,0,2.4c0,1.3,0,2.5,0,3.8c0,1.2,0,2.4,0,3.5c0,0.4,0,0.7-0.1,1.1c0,0.1-0.1,0.3-0.1,0.4c-0.1,0.2-0.2,0.3-0.4,0.4
		c-0.2,0.1-0.4,0.2-0.6,0.2c-0.4,0.1-0.8,0.2-1.2,0.2c-0.7,0.1-1.4,0.1-2.1,0.1c-0.6,0-1.3-0.1-1.9-0.3c-0.2,0-0.3-0.1-0.5-0.2
		c-0.2-0.1-0.3-0.2-0.3-0.3c-0.1-0.2-0.1-0.3-0.2-0.5c0-0.1-0.1-0.2,0-0.4c0-0.1,0-0.1,0-0.2c0-0.1,0-0.3,0-0.4c0-1.6,0-3.2,0-4.9
		c0-1.4,0-2.8,0-4.2c0-0.3,0-0.6,0-0.9c0-0.8,0.1-1.5,0.3-2.3c0.1-0.4,0.3-0.8,0.4-1.1c0.2-0.6,0.4-1.2,0.6-1.8
		c0.3-0.9,0.5-1.9,0.7-2.8c0.1-0.4,0.1-0.8,0.2-1.3c0-0.4,0.1-0.8,0.1-1.3c0-0.8,0-1.7,0.1-2.5c0-0.1,0-0.2,0-0.3
		C16,5.5,16,5.5,15.8,5.4C15.9,5.4,15.8,5.4,15.8,5.4z"/>
	<path fill-rule="evenodd" clip-rule="evenodd" d="M26.9,5.4c0-0.1,0-0.1,0-0.2c0-0.1,0-0.2,0.1-0.3c0.1-0.1,0.2-0.2,0.2-0.4
		c0-0.1,0-0.1,0-0.2c-0.1-0.1-0.1-0.1-0.1-0.2c0-0.1,0.1-0.2,0.2-0.2c0,0,0.1,0,0.1,0c0.1,0,0.2-0.1,0.3-0.1c0.5-0.1,1-0.1,1.6,0
		c0.1,0,0.2,0,0.2,0.1c0.1,0,0.2,0.1,0.2,0.2c0,0.1,0,0.1,0,0.2c-0.1,0.1-0.1,0.2,0,0.4c0,0.1,0.1,0.2,0.2,0.3
		c0.1,0,0.1,0.1,0.1,0.1c0,0.1,0,0.2,0,0.3c0,0,0,0-0.1,0c-0.1,0-0.2,0.1-0.2,0.3c0,0.2,0,0.4,0,0.6c0,0.2,0,0.3,0,0.5
		c0,0.8,0.1,1.5,0.2,2.3c0.2,1.7,0.6,3.4,1.1,5c0.2,0.5,0.4,1.1,0.6,1.6c0.2,0.6,0.4,1.2,0.5,1.8c0.1,0.5,0.2,1.1,0.2,1.6
		c0,0.8,0,1.6,0,2.4c0,1.3,0,2.5,0,3.8c0,1.2,0,2.4,0,3.5c0,0.4,0,0.7-0.1,1.1c0,0.1-0.1,0.3-0.1,0.4c-0.1,0.2-0.2,0.3-0.4,0.4
		c-0.2,0.1-0.4,0.2-0.6,0.2c-0.4,0.1-0.8,0.2-1.2,0.2c-0.7,0.1-1.4,0.1-2.1,0.1c-0.6,0-1.3-0.1-1.9-0.3c-0.2,0-0.3-0.1-0.5-0.2
		c-0.2-0.1-0.3-0.2-0.3-0.3c-0.1-0.2-0.1-0.3-0.2-0.5c0-0.1-0.1-0.2,0-0.4c0-0.1,0-0.1,0-0.2c0-0.1,0-0.3,0-0.4c0-1.6,0-3.2,0-4.9
		c0-1.4,0-2.8,0-4.2c0-0.3,0-0.6,0-0.9c0-0.8,0.1-1.5,0.3-2.3c0.1-0.4,0.3-0.8,0.4-1.1c0.2-0.6,0.4-1.2,0.6-1.8
		c0.3-0.9,0.5-1.9,0.7-2.8c0.1-0.4,0.1-0.8,0.2-1.3c0-0.4,0.1-0.8,0.1-1.3c0-0.8,0-1.7,0.1-2.5c0-0.1,0-0.2,0-0.3
		C27.2,5.5,27.1,5.5,26.9,5.4C27,5.4,27,5.4,26.9,5.4z"/>
</g>
</svg>
