<?xml version="1.0" encoding="utf-8"?>
<!-- Generator: Adobe Illustrator 18.1.1, SVG Export Plug-In . SVG Version: 6.00 Build 0)  -->
<!DOCTYPE svg PUBLIC "-//W3C//DTD SVG 1.1//EN" "http://www.w3.org/Graphics/SVG/1.1/DTD/svg11.dtd">
<svg version="1.1" id="Layer_1" xmlns="http://www.w3.org/2000/svg" xmlns:xlink="http://www.w3.org/1999/xlink" x="0px" y="0px"
	 viewBox="0 0 100 100" enable-background="new 0 0 100 100" xml:space="preserve">
<g>
	<path d="M14.9,68.6c0-12.6,0-25.2,0-37.8c0.1-0.1,0.2-0.2,0.2-0.3c1.5-4.8,4.4-7,9.5-7c16.6,0,33.2,0.1,49.9-0.1
		c5.6-0.1,9.4,2.5,10.5,7.3c0,0,0.1,0.1,0.1,0.1c0,12.6,0,25.2,0,37.8c-0.1,0.2-0.2,0.4-0.3,0.6c-1.3,4.3-4.4,6.7-9,6.8
		c-2.2,0-4.4,0-6.6,0c-15,0-29.9,0-44.9,0c-4.7,0-7.8-2.4-9.1-6.9C15.2,68.9,15,68.7,14.9,68.6z M50,70.4C50,70.4,50,70.4,50,70.4
		c8.6,0,17.3,0,25.9,0c2.7,0,3.8-1.1,3.8-3.8c0-11.2,0-22.5,0-33.7c0-2.9-1-3.9-3.9-3.9c-17.2,0-34.4,0-51.7,0
		c-2.6,0-3.7,1.1-3.8,3.8c0,11.3,0,22.7,0,34c0,2.6,1.1,3.7,3.7,3.7C32.7,70.4,41.3,70.4,50,70.4z"/>
	<path d="M50.1,55.3c-2.3-0.1-4.2-0.7-5.8-2.1C38,48,31.7,42.8,25.3,37.7c-1-0.8-1.7-1.7-1.5-3c0.4-2.2,2.9-3.2,4.8-1.7
		c2.2,1.7,4.4,3.6,6.6,5.4c4.2,3.4,8.3,6.8,12.5,10.3c1.6,1.3,2.9,1.3,4.6,0c6.1-4.9,12.2-9.9,18.3-14.8c0.4-0.3,0.7-0.6,1.1-0.9
		c1.5-1,3.1-0.9,4.1,0.4c1,1.3,0.8,2.9-0.6,4c-2.8,2.3-5.6,4.6-8.4,6.8c-3.8,3.1-7.5,6.1-11.3,9.2C53.9,54.7,52,55.2,50.1,55.3z"/>
	<path d="M73.2,67.4c-0.6-0.4-1.4-0.6-1.9-1.1c-2.9-2.9-5.7-5.8-8.5-8.7c-1.2-1.3-1.2-3-0.1-4.2c1.2-1.1,2.9-1.2,4.2,0.1
		c2.9,2.9,5.8,5.8,8.6,8.8c0.9,0.9,1.1,2.1,0.5,3.3C75.4,66.6,74.5,67.2,73.2,67.4z"/>
	<path d="M26.3,67.5c-0.8-0.6-1.7-1.1-2.3-1.9c-0.7-1-0.6-2.2,0.3-3.1c3-3.1,6.1-6.2,9.2-9.2c1.1-1,2.8-0.8,3.8,0.2
		c1.1,1.1,1.2,2.7,0.2,3.8c-3,3.1-6,6.1-9.1,9.1C28,66.9,27.2,67.1,26.3,67.5z"/>
</g>
</svg>
