<?xml version="1.0" encoding="utf-8"?>
<!-- Generator: Adobe Illustrator 18.1.1, SVG Export Plug-In . SVG Version: 6.00 Build 0)  -->
<!DOCTYPE svg PUBLIC "-//W3C//DTD SVG 1.1//EN" "http://www.w3.org/Graphics/SVG/1.1/DTD/svg11.dtd">
<svg version="1.1" id="Layer_1" xmlns="http://www.w3.org/2000/svg" xmlns:xlink="http://www.w3.org/1999/xlink" x="0px" y="0px"
	 viewBox="0 0 100 100" enable-background="new 0 0 100 100" xml:space="preserve">
<g>
	<path d="M49.3,74.1c7.8,0,15.5,0,23.3,0c3.6,0,4.3-0.9,3.2-4.4c-0.2-0.5-0.4-1-0.6-1.5c-2.7-5.8-7.4-9.5-13.2-12
		c-5.3-2.2-10.9-3-16.7-2.3c-7.6,1-14.2,3.9-19.1,9.9c-1.8,2.1-3.3,4.5-3.7,7.4c-0.3,2.3,0.2,2.9,2.6,2.9
		C33.1,74.1,41.2,74.1,49.3,74.1z"/>
	<path d="M48.7,51.2c7.2,0,13.1-5.7,13.1-12.9c0-7.1-5.8-13-13-13c-7.2,0-13.1,5.7-13.1,12.9C35.7,45.4,41.5,51.2,48.7,51.2z"/>
</g>
</svg>
