<?xml version="1.0" encoding="utf-8"?>
<!-- Generator: Adobe Illustrator 18.1.1, SVG Export Plug-In . SVG Version: 6.00 Build 0)  -->
<!DOCTYPE svg PUBLIC "-//W3C//DTD SVG 1.1//EN" "http://www.w3.org/Graphics/SVG/1.1/DTD/svg11.dtd">
<svg version="1.1" id="Layer_1" xmlns="http://www.w3.org/2000/svg" xmlns:xlink="http://www.w3.org/1999/xlink" x="0px" y="0px"
	 viewBox="0 0 100 100" enable-background="new 0 0 100 100" xml:space="preserve">
<g>
	<path d="M25.5,45.6c0-0.9,0-1.7,0-2.6c0.1-0.6,0.1-1.1,0.2-1.7C27,33.8,32.6,27.7,40,26.1c0.9-0.2,1.9-0.3,2.9-0.5
		c0.9,0,1.7,0,2.6,0c0.3,0,0.7,0.1,1,0.1c6.7,1,11.6,4.5,14.5,10.5c2.7,5.7,2.4,11.5-0.6,17.1C60,54,60,54,60.5,54.5
		c3.8,3.7,7.6,7.4,11.5,11.1c0.9,0.9,1.7,1.9,1.9,3.2c0,0.4,0,0.8,0,1.2c-0.2,1-0.6,1.9-1.4,2.7c-0.7,0.6-1.5,1-2.4,1.2
		c-0.4,0-0.8,0-1.2,0c-1.1-0.2-1.9-0.7-2.7-1.5c-4-3.9-8.1-7.8-12.1-11.8c-0.3-0.3-0.6-0.3-1-0.1c-4.8,2.6-9.9,3.1-15,1.3
		C31.7,59.6,27.7,55,26,48.4C25.8,47.5,25.7,46.5,25.5,45.6z M55.3,44.2c0-6.1-5-11.1-11.1-11.1c-6.1,0-11.1,5-11.1,11.1
		c0,6.1,5,11.1,11.1,11.1C50.2,55.3,55.3,50.3,55.3,44.2z"/>
</g>
</svg>
